STARTFONT 2.1
FONT -FontForge-Butcherman-Book-R-Normal--11-110-72-72-P-59-ISO10646-1
SIZE 11 72 72
FONTBOUNDINGBOX 17 21 -1 -7
COMMENT "Generated by fontforge, http://fontforge.sourceforge.net"
COMMENT "Copyright (c) 2011, Typomondo, with Reserved Font Name  "Butcherman"."
STARTPROPERTIES 40
FOUNDRY "FontForge"
FAMILY_NAME "Butcherman"
WEIGHT_NAME "Book"
SLANT "R"
SETWIDTH_NAME "Normal"
ADD_STYLE_NAME ""
PIXEL_SIZE 11
POINT_SIZE 110
RESOLUTION_X 72
RESOLUTION_Y 72
SPACING "P"
AVERAGE_WIDTH 59
CHARSET_REGISTRY "ISO10646"
CHARSET_ENCODING "1"
FONTNAME_REGISTRY ""
CHARSET_COLLECTIONS "ISO8859-2 ISO8859-9 ISO8859-4 ISO10646-1"
FONT_NAME "Butcherman-Regular"
FACE_NAME "Butcherman Regular"
COPYRIGHT "Copyright (c) 2011, Typomondo, with Reserved Font Name  "Butcherman"."
FONT_VERSION "001.004"
FONT_ASCENT 9
FONT_DESCENT 2
UNDERLINE_POSITION -1
UNDERLINE_THICKNESS 1
X_HEIGHT 7
CAP_HEIGHT 7
DEFAULT_CHAR 3
RAW_ASCENT 799
RAW_DESCENT 200
NORM_SPACE 2
RELATIVE_WEIGHT 40
RELATIVE_SETWIDTH 50
SUPERSCRIPT_X 0
SUPERSCRIPT_Y 3
SUPERSCRIPT_SIZE 6
SUBSCRIPT_X 0
SUBSCRIPT_Y 0
SUBSCRIPT_SIZE 6
AVG_LOWERCASE_WIDTH 64
AVG_UPPERCASE_WIDTH 61
ENDPROPERTIES
CHARS 331
STARTCHAR NULL.dup1
ENCODING 0
SWIDTH 161 0
DWIDTH 2 0
BBX 1 1 0 0
BITMAP
00
ENDCHAR
STARTCHAR CR
ENCODING 13
SWIDTH 161 0
DWIDTH 2 0
BBX 1 1 0 0
BITMAP
00
ENDCHAR
STARTCHAR space
ENCODING 32
SWIDTH 161 0
DWIDTH 2 0
BBX 1 1 0 0
BITMAP
00
ENDCHAR
STARTCHAR exclam
ENCODING 33
SWIDTH 350 0
DWIDTH 4 0
BBX 4 14 0 0
BITMAP
40
F0
60
60
60
60
60
60
60
00
E0
60
60
80
ENDCHAR
STARTCHAR quotedbl
ENCODING 34
SWIDTH 541 0
DWIDTH 6 0
BBX 5 4 0 4
BITMAP
F8
68
48
48
ENDCHAR
STARTCHAR numbersign
ENCODING 35
SWIDTH 583 0
DWIDTH 6 0
BBX 6 10 0 -1
BITMAP
24
24
24
7C
7C
48
50
F8
50
90
ENDCHAR
STARTCHAR dollar
ENCODING 36
SWIDTH 534 0
DWIDTH 6 0
BBX 6 14 0 -3
BITMAP
20
20
20
78
7C
F8
F8
70
38
78
70
20
20
20
ENDCHAR
STARTCHAR percent
ENCODING 37
SWIDTH 828 0
DWIDTH 9 0
BBX 9 10 0 -1
BITMAP
0400
6400
E400
A400
AB80
6B80
1B80
1300
1000
1000
ENDCHAR
STARTCHAR ampersand
ENCODING 38
SWIDTH 522 0
DWIDTH 6 0
BBX 5 6 0 1
BITMAP
30
30
F8
F8
30
30
ENDCHAR
STARTCHAR quotesingle
ENCODING 39
SWIDTH 300 0
DWIDTH 3 0
BBX 3 4 0 4
BITMAP
E0
60
40
40
ENDCHAR
STARTCHAR parenleft
ENCODING 40
SWIDTH 372 0
DWIDTH 4 0
BBX 4 10 0 -1
BITMAP
30
70
70
60
C0
C0
C0
60
60
30
ENDCHAR
STARTCHAR parenright
ENCODING 41
SWIDTH 338 0
DWIDTH 4 0
BBX 3 11 0 -2
BITMAP
C0
E0
60
E0
20
20
20
60
60
C0
80
ENDCHAR
STARTCHAR asterisk
ENCODING 42
SWIDTH 513 0
DWIDTH 6 0
BBX 6 7 0 2
BITMAP
10
50
30
FC
30
30
60
ENDCHAR
STARTCHAR plus
ENCODING 43
SWIDTH 458 0
DWIDTH 5 0
BBX 5 4 0 2
BITMAP
20
F8
F0
20
ENDCHAR
STARTCHAR comma
ENCODING 44
SWIDTH 361 0
DWIDTH 4 0
BBX 3 6 0 -2
BITMAP
60
60
60
A0
20
20
ENDCHAR
STARTCHAR hyphen
ENCODING 45
SWIDTH 478 0
DWIDTH 5 0
BBX 4 2 1 3
BITMAP
F0
E0
ENDCHAR
STARTCHAR period
ENCODING 46
SWIDTH 374 0
DWIDTH 4 0
BBX 4 4 0 0
BITMAP
F0
60
70
80
ENDCHAR
STARTCHAR slash
ENCODING 47
SWIDTH 291 0
DWIDTH 3 0
BBX 3 10 0 -1
BITMAP
20
20
20
20
40
40
40
80
80
80
ENDCHAR
STARTCHAR zero
ENCODING 48
SWIDTH 528 0
DWIDTH 6 0
BBX 5 9 0 -1
BITMAP
78
78
F8
78
58
58
58
70
10
ENDCHAR
STARTCHAR one
ENCODING 49
SWIDTH 366 0
DWIDTH 4 0
BBX 4 8 0 0
BITMAP
60
F0
60
60
60
60
20
20
ENDCHAR
STARTCHAR two
ENCODING 50
SWIDTH 575 0
DWIDTH 6 0
BBX 6 9 0 -1
BITMAP
78
78
78
78
58
18
34
7C
EC
ENDCHAR
STARTCHAR three
ENCODING 51
SWIDTH 517 0
DWIDTH 6 0
BBX 5 9 0 -1
BITMAP
70
F8
78
78
18
38
68
38
20
ENDCHAR
STARTCHAR four
ENCODING 52
SWIDTH 466 0
DWIDTH 5 0
BBX 5 11 0 -3
BITMAP
78
60
60
60
78
50
78
F8
18
10
10
ENDCHAR
STARTCHAR five
ENCODING 53
SWIDTH 583 0
DWIDTH 6 0
BBX 6 9 0 -1
BITMAP
7C
7C
7C
7C
C0
78
68
38
20
ENDCHAR
STARTCHAR six
ENCODING 54
SWIDTH 582 0
DWIDTH 6 0
BBX 6 9 0 -1
BITMAP
78
FC
FC
7C
6C
78
6C
78
38
ENDCHAR
STARTCHAR seven
ENCODING 55
SWIDTH 624 0
DWIDTH 7 0
BBX 7 9 0 -1
BITMAP
FE
FC
7C
7C
08
18
18
10
30
ENDCHAR
STARTCHAR eight
ENCODING 56
SWIDTH 459 0
DWIDTH 5 0
BBX 5 9 0 -1
BITMAP
70
F8
70
50
50
70
50
70
20
ENDCHAR
STARTCHAR nine
ENCODING 57
SWIDTH 584 0
DWIDTH 6 0
BBX 6 10 0 -2
BITMAP
38
7C
FC
FC
7C
7C
68
78
10
10
ENDCHAR
STARTCHAR colon
ENCODING 58
SWIDTH 386 0
DWIDTH 4 0
BBX 4 9 0 0
BITMAP
F0
70
70
00
00
F0
70
70
C0
ENDCHAR
STARTCHAR semicolon
ENCODING 59
SWIDTH 375 0
DWIDTH 4 0
BBX 4 11 0 -2
BITMAP
F0
60
60
00
00
60
60
60
A0
20
20
ENDCHAR
STARTCHAR less
ENCODING 60
SWIDTH 459 0
DWIDTH 5 0
BBX 5 6 0 1
BITMAP
38
70
60
E0
60
38
ENDCHAR
STARTCHAR equal
ENCODING 61
SWIDTH 485 0
DWIDTH 5 0
BBX 4 4 1 3
BITMAP
F0
F0
D0
F0
ENDCHAR
STARTCHAR greater
ENCODING 62
SWIDTH 432 0
DWIDTH 5 0
BBX 4 6 0 1
BITMAP
E0
60
30
30
70
E0
ENDCHAR
STARTCHAR question
ENCODING 63
SWIDTH 577 0
DWIDTH 6 0
BBX 5 10 1 -1
BITMAP
60
F0
F8
F0
F0
30
20
00
60
60
ENDCHAR
STARTCHAR at
ENCODING 64
SWIDTH 930 0
DWIDTH 10 0
BBX 10 11 0 -2
BITMAP
1E00
2100
5E80
5EC0
DEC0
5EC0
DEC0
5E40
5D80
6000
3E00
ENDCHAR
STARTCHAR A
ENCODING 65
SWIDTH 494 0
DWIDTH 5 0
BBX 5 10 0 -2
BITMAP
F8
70
70
70
70
50
70
50
50
50
ENDCHAR
STARTCHAR B
ENCODING 66
SWIDTH 517 0
DWIDTH 6 0
BBX 5 9 0 -1
BITMAP
F8
78
78
68
68
78
68
78
20
ENDCHAR
STARTCHAR C
ENCODING 67
SWIDTH 504 0
DWIDTH 6 0
BBX 5 9 0 -1
BITMAP
78
F8
F8
F8
78
40
78
70
30
ENDCHAR
STARTCHAR D
ENCODING 68
SWIDTH 522 0
DWIDTH 6 0
BBX 6 10 0 -2
BITMAP
F8
78
7C
68
68
68
68
38
50
10
ENDCHAR
STARTCHAR E
ENCODING 69
SWIDTH 570 0
DWIDTH 6 0
BBX 6 9 0 -1
BITMAP
FC
78
78
68
70
70
68
30
30
ENDCHAR
STARTCHAR F
ENCODING 70
SWIDTH 559 0
DWIDTH 6 0
BBX 6 9 0 -1
BITMAP
FC
78
78
78
38
38
20
20
60
ENDCHAR
STARTCHAR G
ENCODING 71
SWIDTH 499 0
DWIDTH 5 0
BBX 5 9 0 -1
BITMAP
70
F8
F8
58
58
58
58
78
30
ENDCHAR
STARTCHAR H
ENCODING 72
SWIDTH 726 0
DWIDTH 8 0
BBX 8 10 0 -2
BITMAP
FF
66
6E
6C
3C
3C
2C
2C
0C
08
ENDCHAR
STARTCHAR I
ENCODING 73
SWIDTH 401 0
DWIDTH 4 0
BBX 4 9 0 -1
BITMAP
F0
60
70
60
60
60
20
20
20
ENDCHAR
STARTCHAR J
ENCODING 74
SWIDTH 455 0
DWIDTH 5 0
BBX 5 8 0 0
BITMAP
38
30
30
30
30
B0
A0
E0
ENDCHAR
STARTCHAR K
ENCODING 75
SWIDTH 580 0
DWIDTH 6 0
BBX 6 9 0 -1
BITMAP
EC
68
78
78
30
38
38
28
18
ENDCHAR
STARTCHAR L
ENCODING 76
SWIDTH 416 0
DWIDTH 5 0
BBX 5 9 0 -1
BITMAP
F0
60
60
60
60
60
78
38
68
ENDCHAR
STARTCHAR M
ENCODING 77
SWIDTH 740 0
DWIDTH 8 0
BBX 8 8 0 0
BITMAP
FF
7E
7E
7E
7E
3E
2E
2C
ENDCHAR
STARTCHAR N
ENCODING 78
SWIDTH 610 0
DWIDTH 7 0
BBX 7 10 0 -2
BITMAP
EE
6C
7C
78
78
38
38
28
68
70
ENDCHAR
STARTCHAR O
ENCODING 79
SWIDTH 504 0
DWIDTH 6 0
BBX 5 9 0 -1
BITMAP
78
F8
F8
F8
58
58
58
70
30
ENDCHAR
STARTCHAR P
ENCODING 80
SWIDTH 545 0
DWIDTH 6 0
BBX 6 9 0 -1
BITMAP
F8
7C
7C
68
28
38
20
20
20
ENDCHAR
STARTCHAR Q
ENCODING 81
SWIDTH 520 0
DWIDTH 6 0
BBX 6 10 0 -2
BITMAP
70
78
F8
EC
68
68
78
38
0C
08
ENDCHAR
STARTCHAR R
ENCODING 82
SWIDTH 599 0
DWIDTH 7 0
BBX 6 9 0 -1
BITMAP
FC
7C
7C
6C
2C
3C
2C
2C
1C
ENDCHAR
STARTCHAR S
ENCODING 83
SWIDTH 504 0
DWIDTH 6 0
BBX 5 9 0 -1
BITMAP
78
78
F8
F8
F0
78
F8
70
30
ENDCHAR
STARTCHAR T
ENCODING 84
SWIDTH 622 0
DWIDTH 7 0
BBX 6 9 0 -1
BITMAP
FC
7C
7C
7C
18
18
10
10
10
ENDCHAR
STARTCHAR U
ENCODING 85
SWIDTH 637 0
DWIDTH 7 0
BBX 7 9 0 -1
BITMAP
EE
6C
6C
6C
6C
68
28
38
08
ENDCHAR
STARTCHAR V
ENCODING 86
SWIDTH 570 0
DWIDTH 6 0
BBX 6 9 0 -1
BITMAP
EC
68
78
78
78
70
30
30
30
ENDCHAR
STARTCHAR W
ENCODING 87
SWIDTH 777 0
DWIDTH 9 0
BBX 9 8 0 0
BITMAP
EB80
6A00
3E00
3C00
3E00
1C00
1C00
1C00
ENDCHAR
STARTCHAR X
ENCODING 88
SWIDTH 587 0
DWIDTH 6 0
BBX 7 9 0 -1
BITMAP
EE
38
38
30
30
30
30
38
48
ENDCHAR
STARTCHAR Y
ENCODING 89
SWIDTH 688 0
DWIDTH 8 0
BBX 8 9 0 -1
BITMAP
E7
3E
1C
18
18
08
08
08
08
ENDCHAR
STARTCHAR Z
ENCODING 90
SWIDTH 695 0
DWIDTH 8 0
BBX 8 8 0 0
BITMAP
FF
7E
7C
6C
18
10
30
38
ENDCHAR
STARTCHAR bracketleft
ENCODING 91
SWIDTH 410 0
DWIDTH 5 0
BBX 3 10 1 0
BITMAP
80
E0
E0
80
80
80
80
80
80
E0
ENDCHAR
STARTCHAR backslash
ENCODING 92
SWIDTH 292 0
DWIDTH 3 0
BBX 3 10 0 -1
BITMAP
80
80
80
40
40
40
20
20
20
20
ENDCHAR
STARTCHAR bracketright
ENCODING 93
SWIDTH 407 0
DWIDTH 4 0
BBX 4 10 0 0
BITMAP
10
F0
F0
30
30
30
30
30
30
F0
ENDCHAR
STARTCHAR asciicircum
ENCODING 94
SWIDTH 523 0
DWIDTH 6 0
BBX 5 4 0 8
BITMAP
30
70
58
C8
ENDCHAR
STARTCHAR underscore
ENCODING 95
SWIDTH 452 0
DWIDTH 5 0
BBX 3 1 1 0
BITMAP
E0
ENDCHAR
STARTCHAR grave
ENCODING 96
SWIDTH 444 0
DWIDTH 5 0
BBX 3 3 1 8
BITMAP
80
E0
20
ENDCHAR
STARTCHAR a
ENCODING 97
SWIDTH 479 0
DWIDTH 5 0
BBX 5 9 0 -1
BITMAP
F8
70
70
70
70
78
70
70
50
ENDCHAR
STARTCHAR b
ENCODING 98
SWIDTH 610 0
DWIDTH 7 0
BBX 6 9 0 -1
BITMAP
FC
7C
7C
3C
2C
38
2C
3C
28
ENDCHAR
STARTCHAR c
ENCODING 99
SWIDTH 534 0
DWIDTH 6 0
BBX 6 9 0 -1
BITMAP
78
FC
FC
FC
68
60
78
78
30
ENDCHAR
STARTCHAR d
ENCODING 100
SWIDTH 573 0
DWIDTH 6 0
BBX 6 9 0 -1
BITMAP
F8
7C
7C
7C
2C
2C
28
38
38
ENDCHAR
STARTCHAR e
ENCODING 101
SWIDTH 632 0
DWIDTH 7 0
BBX 7 9 0 -1
BITMAP
FE
7C
7C
7C
60
38
20
38
28
ENDCHAR
STARTCHAR f
ENCODING 102
SWIDTH 559 0
DWIDTH 6 0
BBX 6 9 0 -1
BITMAP
FC
78
78
78
38
38
20
20
20
ENDCHAR
STARTCHAR g
ENCODING 103
SWIDTH 546 0
DWIDTH 6 0
BBX 6 9 0 -1
BITMAP
78
FC
FC
7C
68
7C
78
78
38
ENDCHAR
STARTCHAR h
ENCODING 104
SWIDTH 730 0
DWIDTH 8 0
BBX 8 9 0 -1
BITMAP
FF
66
66
66
3C
3C
2C
2C
04
ENDCHAR
STARTCHAR i
ENCODING 105
SWIDTH 412 0
DWIDTH 5 0
BBX 4 8 0 0
BITMAP
F0
70
60
60
60
20
20
20
ENDCHAR
STARTCHAR j
ENCODING 106
SWIDTH 458 0
DWIDTH 5 0
BBX 5 8 0 0
BITMAP
78
30
30
30
30
B0
F0
E0
ENDCHAR
STARTCHAR k
ENCODING 107
SWIDTH 636 0
DWIDTH 7 0
BBX 7 8 0 0
BITMAP
FE
68
28
28
30
38
28
2C
ENDCHAR
STARTCHAR l
ENCODING 108
SWIDTH 438 0
DWIDTH 5 0
BBX 5 9 0 -1
BITMAP
F8
60
60
60
20
20
38
38
28
ENDCHAR
STARTCHAR m
ENCODING 109
SWIDTH 770 0
DWIDTH 8 0
BBX 8 9 0 -1
BITMAP
F7
7E
7E
7E
7E
7C
34
34
40
ENDCHAR
STARTCHAR n
ENCODING 110
SWIDTH 664 0
DWIDTH 7 0
BBX 7 9 0 -1
BITMAP
EE
7C
7C
7C
7C
7C
7C
28
68
ENDCHAR
STARTCHAR o
ENCODING 111
SWIDTH 545 0
DWIDTH 6 0
BBX 6 9 0 -1
BITMAP
78
FC
FC
7C
5C
78
78
78
10
ENDCHAR
STARTCHAR p
ENCODING 112
SWIDTH 557 0
DWIDTH 6 0
BBX 6 9 0 -1
BITMAP
F8
7C
7C
6C
68
38
20
20
20
ENDCHAR
STARTCHAR q
ENCODING 113
SWIDTH 562 0
DWIDTH 6 0
BBX 6 10 0 -2
BITMAP
78
7C
FC
EC
6C
6C
6C
3C
0C
04
ENDCHAR
STARTCHAR r
ENCODING 114
SWIDTH 616 0
DWIDTH 7 0
BBX 7 9 0 -1
BITMAP
FC
7E
7C
2C
2C
3C
28
28
28
ENDCHAR
STARTCHAR s
ENCODING 115
SWIDTH 481 0
DWIDTH 5 0
BBX 5 9 0 -1
BITMAP
70
78
F8
D8
60
70
50
70
40
ENDCHAR
STARTCHAR t
ENCODING 116
SWIDTH 683 0
DWIDTH 8 0
BBX 7 10 0 -2
BITMAP
FE
7C
7C
7C
18
18
18
18
18
08
ENDCHAR
STARTCHAR u
ENCODING 117
SWIDTH 708 0
DWIDTH 8 0
BBX 8 8 0 0
BITMAP
F7
7E
76
74
3C
3C
3C
3C
ENDCHAR
STARTCHAR v
ENCODING 118
SWIDTH 644 0
DWIDTH 7 0
BBX 7 9 0 -1
BITMAP
EE
6C
2C
28
38
38
38
18
10
ENDCHAR
STARTCHAR w
ENCODING 119
SWIDTH 704 0
DWIDTH 8 0
BBX 8 8 0 0
BITMAP
F7
7E
3C
3C
3C
3C
1C
1C
ENDCHAR
STARTCHAR x
ENCODING 120
SWIDTH 599 0
DWIDTH 7 0
BBX 7 9 0 -1
BITMAP
EE
38
38
30
30
30
30
28
28
ENDCHAR
STARTCHAR y
ENCODING 121
SWIDTH 604 0
DWIDTH 7 0
BBX 7 9 0 -1
BITMAP
EE
28
38
38
10
10
10
10
10
ENDCHAR
STARTCHAR z
ENCODING 122
SWIDTH 622 0
DWIDTH 7 0
BBX 6 9 0 -1
BITMAP
FC
7C
7C
78
10
10
30
38
08
ENDCHAR
STARTCHAR braceleft
ENCODING 123
SWIDTH 372 0
DWIDTH 4 0
BBX 4 10 0 -1
BITMAP
30
70
70
60
C0
C0
C0
60
60
30
ENDCHAR
STARTCHAR bar
ENCODING 124
SWIDTH 208 0
DWIDTH 2 0
BBX 1 10 1 -1
BITMAP
80
80
80
80
80
80
80
80
80
80
ENDCHAR
STARTCHAR braceright
ENCODING 125
SWIDTH 338 0
DWIDTH 4 0
BBX 3 11 0 -2
BITMAP
C0
E0
60
E0
20
20
20
60
60
C0
80
ENDCHAR
STARTCHAR asciitilde
ENCODING 126
SWIDTH 535 0
DWIDTH 6 0
BBX 5 3 0 6
BITMAP
50
F8
68
ENDCHAR
STARTCHAR exclamdown
ENCODING 161
SWIDTH 347 0
DWIDTH 4 0
BBX 4 14 0 0
BITMAP
40
60
60
E0
00
60
60
60
60
60
60
60
F0
40
ENDCHAR
STARTCHAR cent
ENCODING 162
SWIDTH 552 0
DWIDTH 6 0
BBX 6 15 0 -4
BITMAP
10
10
10
78
FC
FC
7C
68
60
68
78
30
10
10
10
ENDCHAR
STARTCHAR sterling
ENCODING 163
SWIDTH 589 0
DWIDTH 6 0
BBX 6 9 0 -1
BITMAP
78
FC
7C
7C
6C
E0
74
78
28
ENDCHAR
STARTCHAR yen
ENCODING 165
SWIDTH 692 0
DWIDTH 8 0
BBX 8 9 0 1
BITMAP
88
6F
3C
1C
7E
18
7E
18
08
ENDCHAR
STARTCHAR brokenbar
ENCODING 166
SWIDTH 201 0
DWIDTH 2 0
BBX 1 10 1 -1
BITMAP
80
80
80
80
00
00
80
80
80
80
ENDCHAR
STARTCHAR section
ENCODING 167
SWIDTH 477 0
DWIDTH 5 0
BBX 5 10 0 -2
BITMAP
78
78
78
70
70
D0
D0
70
50
60
ENDCHAR
STARTCHAR dieresis
ENCODING 168
SWIDTH 633 0
DWIDTH 7 0
BBX 5 3 1 9
BITMAP
08
D8
D8
ENDCHAR
STARTCHAR copyright
ENCODING 169
SWIDTH 783 0
DWIDTH 9 0
BBX 8 9 0 -1
BITMAP
3E
5D
9D
BD
95
91
5D
6A
1C
ENDCHAR
STARTCHAR guillemotleft
ENCODING 171
SWIDTH 759 0
DWIDTH 8 0
BBX 8 6 0 1
BITMAP
37
76
6E
CC
66
3F
ENDCHAR
STARTCHAR uni00AD
ENCODING 173
SWIDTH 446 0
DWIDTH 5 0
BBX 3 2 1 3
BITMAP
E0
E0
ENDCHAR
STARTCHAR registered
ENCODING 174
SWIDTH 780 0
DWIDTH 9 0
BBX 8 9 0 -1
BITMAP
3E
7D
9D
95
9D
95
5D
22
1C
ENDCHAR
STARTCHAR macron
ENCODING 175
SWIDTH 446 0
DWIDTH 5 0
BBX 3 2 1 3
BITMAP
E0
E0
ENDCHAR
STARTCHAR acute
ENCODING 180
SWIDTH 439 0
DWIDTH 5 0
BBX 3 3 1 8
BITMAP
60
E0
80
ENDCHAR
STARTCHAR mu
ENCODING 181
SWIDTH 679 0
DWIDTH 7 0
BBX 8 8 0 0
BITMAP
EF
6E
6E
6C
6C
6C
2C
3C
ENDCHAR
STARTCHAR paragraph
ENCODING 182
SWIDTH 591 0
DWIDTH 7 0
BBX 7 9 0 -1
BITMAP
7E
F4
F4
74
78
18
18
18
08
ENDCHAR
STARTCHAR periodcentered
ENCODING 183
SWIDTH 388 0
DWIDTH 4 0
BBX 4 4 0 2
BITMAP
F0
60
70
80
ENDCHAR
STARTCHAR cedilla
ENCODING 184
SWIDTH 270 0
DWIDTH 3 0
BBX 2 4 1 -4
BITMAP
80
80
40
80
ENDCHAR
STARTCHAR guillemotright
ENCODING 187
SWIDTH 767 0
DWIDTH 8 0
BBX 8 6 0 1
BITMAP
EC
66
37
33
67
EE
ENDCHAR
STARTCHAR Agrave
ENCODING 192
SWIDTH 494 0
DWIDTH 5 0
BBX 6 13 -1 -2
BITMAP
40
F0
10
7C
38
38
38
38
28
38
28
28
28
ENDCHAR
STARTCHAR Aacute
ENCODING 193
SWIDTH 494 0
DWIDTH 5 0
BBX 6 13 0 -2
BITMAP
04
1C
10
F8
70
70
70
70
50
70
50
50
50
ENDCHAR
STARTCHAR Acircumflex
ENCODING 194
SWIDTH 494 0
DWIDTH 5 0
BBX 5 15 0 -2
BITMAP
10
70
58
88
00
F8
70
70
70
70
50
70
50
50
50
ENDCHAR
STARTCHAR Atilde
ENCODING 195
SWIDTH 494 0
DWIDTH 5 0
BBX 5 14 0 -2
BITMAP
50
F8
68
00
F8
70
70
70
70
50
70
50
50
50
ENDCHAR
STARTCHAR Adieresis
ENCODING 196
SWIDTH 494 0
DWIDTH 5 0
BBX 5 14 0 -2
BITMAP
08
D8
D8
00
F8
70
70
70
70
50
70
50
50
50
ENDCHAR
STARTCHAR Aring
ENCODING 197
SWIDTH 494 0
DWIDTH 5 0
BBX 5 13 0 -2
BITMAP
70
50
30
F8
70
70
70
70
50
70
50
50
50
ENDCHAR
STARTCHAR AE
ENCODING 198
SWIDTH 733 0
DWIDTH 8 0
BBX 8 10 0 -2
BITMAP
FF
7E
7E
7A
7C
5C
78
5C
5C
5C
ENDCHAR
STARTCHAR Ccedilla
ENCODING 199
SWIDTH 504 0
DWIDTH 6 0
BBX 5 13 0 -5
BITMAP
78
F8
F8
F8
78
40
78
70
20
10
18
08
18
ENDCHAR
STARTCHAR Egrave
ENCODING 200
SWIDTH 570 0
DWIDTH 6 0
BBX 6 12 0 -1
BITMAP
40
E0
10
FC
78
78
68
70
70
68
30
30
ENDCHAR
STARTCHAR Eacute
ENCODING 201
SWIDTH 570 0
DWIDTH 6 0
BBX 7 12 0 -1
BITMAP
04
0E
10
FC
78
78
68
70
70
68
30
30
ENDCHAR
STARTCHAR Ecircumflex
ENCODING 202
SWIDTH 570 0
DWIDTH 6 0
BBX 6 14 0 -1
BITMAP
08
38
78
4C
00
FC
78
78
68
70
70
68
30
30
ENDCHAR
STARTCHAR Edieresis
ENCODING 203
SWIDTH 570 0
DWIDTH 6 0
BBX 6 13 0 -1
BITMAP
08
6C
6C
00
FC
78
78
68
70
70
68
30
30
ENDCHAR
STARTCHAR Igrave
ENCODING 204
SWIDTH 401 0
DWIDTH 4 0
BBX 5 12 -1 -1
BITMAP
40
E0
10
78
30
38
30
30
30
10
10
10
ENDCHAR
STARTCHAR Iacute
ENCODING 205
SWIDTH 401 0
DWIDTH 4 0
BBX 6 12 0 -1
BITMAP
08
1C
20
F0
60
70
60
60
60
20
20
20
ENDCHAR
STARTCHAR Icircumflex
ENCODING 206
SWIDTH 401 0
DWIDTH 4 0
BBX 5 14 0 -1
BITMAP
10
70
F0
98
00
F0
60
70
60
60
60
20
20
20
ENDCHAR
STARTCHAR Idieresis
ENCODING 207
SWIDTH 401 0
DWIDTH 4 0
BBX 5 13 0 -1
BITMAP
10
D8
D8
00
F0
60
70
60
60
60
20
20
20
ENDCHAR
STARTCHAR Eth
ENCODING 208
SWIDTH 530 0
DWIDTH 6 0
BBX 6 10 0 -2
BITMAP
78
7C
7C
3C
FC
28
28
38
30
10
ENDCHAR
STARTCHAR Ntilde
ENCODING 209
SWIDTH 610 0
DWIDTH 7 0
BBX 7 14 0 -2
BITMAP
48
7C
28
00
EE
6C
7C
78
78
38
38
28
68
70
ENDCHAR
STARTCHAR Ograve
ENCODING 210
SWIDTH 504 0
DWIDTH 6 0
BBX 6 12 -1 -1
BITMAP
40
F0
10
3C
7C
7C
7C
2C
2C
2C
38
18
ENDCHAR
STARTCHAR Oacute
ENCODING 211
SWIDTH 504 0
DWIDTH 6 0
BBX 6 12 0 -1
BITMAP
04
1C
10
78
F8
F8
F8
58
58
58
70
30
ENDCHAR
STARTCHAR Ocircumflex
ENCODING 212
SWIDTH 504 0
DWIDTH 6 0
BBX 5 14 0 -1
BITMAP
10
70
58
88
00
78
F8
F8
F8
58
58
58
70
30
ENDCHAR
STARTCHAR Otilde
ENCODING 213
SWIDTH 504 0
DWIDTH 6 0
BBX 5 13 0 -1
BITMAP
50
F8
70
00
78
F8
F8
F8
58
58
58
70
30
ENDCHAR
STARTCHAR Odieresis
ENCODING 214
SWIDTH 504 0
DWIDTH 6 0
BBX 5 13 0 -1
BITMAP
08
D8
D8
00
78
F8
F8
F8
58
58
58
70
30
ENDCHAR
STARTCHAR multiply
ENCODING 215
SWIDTH 359 0
DWIDTH 4 0
BBX 4 4 0 2
BITMAP
F0
60
F0
60
ENDCHAR
STARTCHAR Oslash
ENCODING 216
SWIDTH 658 0
DWIDTH 7 0
BBX 7 9 0 -1
BITMAP
78
7E
7C
7C
7C
68
68
F8
A8
ENDCHAR
STARTCHAR Ugrave
ENCODING 217
SWIDTH 637 0
DWIDTH 7 0
BBX 7 12 0 -1
BITMAP
40
E0
10
EE
6C
6C
6C
6C
68
28
38
08
ENDCHAR
STARTCHAR Uacute
ENCODING 218
SWIDTH 637 0
DWIDTH 7 0
BBX 7 12 0 -1
BITMAP
06
0E
08
EE
6C
6C
6C
6C
68
28
38
08
ENDCHAR
STARTCHAR Ucircumflex
ENCODING 219
SWIDTH 637 0
DWIDTH 7 0
BBX 7 14 0 -1
BITMAP
08
38
28
44
00
EE
6C
6C
6C
6C
68
28
38
08
ENDCHAR
STARTCHAR Udieresis
ENCODING 220
SWIDTH 637 0
DWIDTH 7 0
BBX 7 13 0 -1
BITMAP
04
6C
6C
00
EE
6C
6C
6C
6C
68
28
38
08
ENDCHAR
STARTCHAR Yacute
ENCODING 221
SWIDTH 688 0
DWIDTH 8 0
BBX 8 13 0 -1
BITMAP
02
07
08
00
E7
3E
1C
18
18
08
08
08
08
ENDCHAR
STARTCHAR Thorn
ENCODING 222
SWIDTH 521 0
DWIDTH 6 0
BBX 5 11 0 -1
BITMAP
E0
E0
F8
78
78
68
68
78
60
60
20
ENDCHAR
STARTCHAR germandbls
ENCODING 223
SWIDTH 546 0
DWIDTH 6 0
BBX 6 9 0 -1
BITMAP
78
FC
FC
F8
78
70
78
78
70
ENDCHAR
STARTCHAR agrave
ENCODING 224
SWIDTH 479 0
DWIDTH 5 0
BBX 5 13 0 -1
BITMAP
C0
E0
20
00
F8
70
70
70
70
78
70
70
50
ENDCHAR
STARTCHAR aacute
ENCODING 225
SWIDTH 479 0
DWIDTH 5 0
BBX 7 13 0 -1
BITMAP
04
0E
10
00
F8
70
70
70
70
78
70
70
50
ENDCHAR
STARTCHAR acircumflex
ENCODING 226
SWIDTH 479 0
DWIDTH 5 0
BBX 5 14 0 -1
BITMAP
10
70
58
C8
00
F8
70
70
70
70
78
70
70
50
ENDCHAR
STARTCHAR atilde
ENCODING 227
SWIDTH 479 0
DWIDTH 5 0
BBX 5 13 0 -1
BITMAP
50
F8
68
00
F8
70
70
70
70
78
70
70
50
ENDCHAR
STARTCHAR adieresis
ENCODING 228
SWIDTH 479 0
DWIDTH 5 0
BBX 6 13 0 -1
BITMAP
08
DC
DC
00
F8
70
70
70
70
78
70
70
50
ENDCHAR
STARTCHAR aring
ENCODING 229
SWIDTH 479 0
DWIDTH 5 0
BBX 5 13 0 -1
BITMAP
70
50
30
00
F8
70
70
70
70
78
70
70
50
ENDCHAR
STARTCHAR ae
ENCODING 230
SWIDTH 755 0
DWIDTH 8 0
BBX 8 9 0 -1
BITMAP
FF
7E
7E
7E
78
7C
78
7E
52
ENDCHAR
STARTCHAR ccedilla
ENCODING 231
SWIDTH 534 0
DWIDTH 6 0
BBX 6 13 0 -5
BITMAP
78
FC
FC
FC
68
60
78
78
30
10
18
08
18
ENDCHAR
STARTCHAR egrave
ENCODING 232
SWIDTH 632 0
DWIDTH 7 0
BBX 7 12 0 -1
BITMAP
40
E0
10
FE
7C
7C
7C
60
38
20
38
28
ENDCHAR
STARTCHAR eacute
ENCODING 233
SWIDTH 632 0
DWIDTH 7 0
BBX 7 12 0 -1
BITMAP
04
0E
10
FE
7C
7C
7C
60
38
20
38
28
ENDCHAR
STARTCHAR ecircumflex
ENCODING 234
SWIDTH 632 0
DWIDTH 7 0
BBX 7 14 0 -1
BITMAP
08
38
68
4C
00
FE
7C
7C
7C
60
38
20
38
28
ENDCHAR
STARTCHAR edieresis
ENCODING 235
SWIDTH 632 0
DWIDTH 7 0
BBX 7 13 0 -1
BITMAP
04
6C
6C
00
FE
7C
7C
7C
60
38
20
38
28
ENDCHAR
STARTCHAR igrave
ENCODING 236
SWIDTH 411 0
DWIDTH 5 0
BBX 5 11 -1 0
BITMAP
40
E0
10
78
38
30
30
30
10
10
10
ENDCHAR
STARTCHAR iacute
ENCODING 237
SWIDTH 411 0
DWIDTH 5 0
BBX 6 12 0 0
BITMAP
08
1C
20
00
F0
70
60
60
60
20
20
20
ENDCHAR
STARTCHAR icircumflex
ENCODING 238
SWIDTH 411 0
DWIDTH 5 0
BBX 5 13 0 0
BITMAP
10
70
50
88
00
F0
70
60
60
60
20
20
20
ENDCHAR
STARTCHAR idieresis
ENCODING 239
SWIDTH 411 0
DWIDTH 5 0
BBX 5 12 0 0
BITMAP
10
D8
D8
00
F0
70
60
60
60
20
20
20
ENDCHAR
STARTCHAR eth
ENCODING 240
SWIDTH 530 0
DWIDTH 6 0
BBX 6 10 0 -2
BITMAP
78
7C
7C
3C
FC
28
28
38
30
10
ENDCHAR
STARTCHAR ntilde
ENCODING 241
SWIDTH 664 0
DWIDTH 7 0
BBX 7 13 0 -1
BITMAP
28
7C
34
00
EE
7C
7C
7C
7C
7C
7C
28
68
ENDCHAR
STARTCHAR ograve
ENCODING 242
SWIDTH 545 0
DWIDTH 6 0
BBX 6 12 0 -1
BITMAP
C0
E0
20
78
FC
FC
7C
5C
78
78
78
10
ENDCHAR
STARTCHAR oacute
ENCODING 243
SWIDTH 545 0
DWIDTH 6 0
BBX 7 12 0 -1
BITMAP
04
0E
10
78
FC
FC
7C
5C
78
78
78
10
ENDCHAR
STARTCHAR ocircumflex
ENCODING 244
SWIDTH 545 0
DWIDTH 6 0
BBX 6 14 0 -1
BITMAP
10
70
78
C8
00
78
FC
FC
7C
5C
78
78
78
10
ENDCHAR
STARTCHAR otilde
ENCODING 245
SWIDTH 545 0
DWIDTH 6 0
BBX 6 13 0 -1
BITMAP
50
F8
68
00
78
FC
FC
7C
5C
78
78
78
10
ENDCHAR
STARTCHAR odieresis
ENCODING 246
SWIDTH 545 0
DWIDTH 6 0
BBX 6 13 0 -1
BITMAP
08
DC
DC
00
78
FC
FC
7C
5C
78
78
78
10
ENDCHAR
STARTCHAR oslash
ENCODING 248
SWIDTH 676 0
DWIDTH 7 0
BBX 7 9 0 -1
BITMAP
7A
7C
FC
7C
5C
78
78
F8
10
ENDCHAR
STARTCHAR ugrave
ENCODING 249
SWIDTH 708 0
DWIDTH 8 0
BBX 8 11 0 0
BITMAP
60
70
10
E7
7E
76
74
3C
3C
3C
3C
ENDCHAR
STARTCHAR uacute
ENCODING 250
SWIDTH 708 0
DWIDTH 8 0
BBX 8 11 0 0
BITMAP
02
07
08
F7
7E
76
74
3C
3C
3C
3C
ENDCHAR
STARTCHAR ucircumflex
ENCODING 251
SWIDTH 708 0
DWIDTH 8 0
BBX 8 13 0 0
BITMAP
08
38
3C
64
00
F7
7E
76
74
3C
3C
3C
3C
ENDCHAR
STARTCHAR udieresis
ENCODING 252
SWIDTH 708 0
DWIDTH 8 0
BBX 8 12 0 0
BITMAP
04
6E
6E
00
F7
7E
76
74
3C
3C
3C
3C
ENDCHAR
STARTCHAR yacute
ENCODING 253
SWIDTH 604 0
DWIDTH 7 0
BBX 7 13 0 -1
BITMAP
04
0E
10
00
EE
28
38
38
10
10
10
10
10
ENDCHAR
STARTCHAR thorn
ENCODING 254
SWIDTH 498 0
DWIDTH 5 0
BBX 5 11 0 -1
BITMAP
E0
E0
F8
78
78
68
68
78
60
60
20
ENDCHAR
STARTCHAR ydieresis
ENCODING 255
SWIDTH 604 0
DWIDTH 7 0
BBX 7 13 0 -1
BITMAP
04
6C
6C
00
EE
28
38
38
10
10
10
10
10
ENDCHAR
STARTCHAR Amacron
ENCODING 256
SWIDTH 494 0
DWIDTH 5 0
BBX 5 13 0 -2
BITMAP
68
70
00
F8
70
70
70
70
50
70
50
50
50
ENDCHAR
STARTCHAR amacron
ENCODING 257
SWIDTH 479 0
DWIDTH 5 0
BBX 5 12 0 -1
BITMAP
58
78
00
F8
70
70
70
70
78
70
70
50
ENDCHAR
STARTCHAR Abreve
ENCODING 258
SWIDTH 494 0
DWIDTH 5 0
BBX 5 14 0 -2
BITMAP
68
38
18
00
F8
70
70
70
70
50
70
50
50
50
ENDCHAR
STARTCHAR abreve
ENCODING 259
SWIDTH 479 0
DWIDTH 5 0
BBX 5 13 0 -1
BITMAP
68
38
18
00
F8
70
70
70
70
78
70
70
50
ENDCHAR
STARTCHAR Aogonek
ENCODING 260
SWIDTH 494 0
DWIDTH 5 0
BBX 5 13 0 -5
BITMAP
F8
70
70
70
70
50
70
50
50
70
30
38
08
ENDCHAR
STARTCHAR aogonek
ENCODING 261
SWIDTH 479 0
DWIDTH 5 0
BBX 6 12 0 -4
BITMAP
F8
70
70
70
70
78
70
70
50
10
1C
0C
ENDCHAR
STARTCHAR Cacute
ENCODING 262
SWIDTH 504 0
DWIDTH 6 0
BBX 6 12 0 -1
BITMAP
08
1C
20
78
F8
F8
F8
78
40
78
70
30
ENDCHAR
STARTCHAR cacute
ENCODING 263
SWIDTH 534 0
DWIDTH 6 0
BBX 6 12 0 -1
BITMAP
08
1C
20
78
FC
FC
FC
68
60
78
78
30
ENDCHAR
STARTCHAR Ccircumflex
ENCODING 264
SWIDTH 504 0
DWIDTH 6 0
BBX 5 14 0 -1
BITMAP
10
30
78
C8
00
78
F8
F8
F8
78
40
78
70
30
ENDCHAR
STARTCHAR ccircumflex
ENCODING 265
SWIDTH 534 0
DWIDTH 6 0
BBX 6 14 0 -1
BITMAP
08
38
68
4C
00
78
FC
FC
FC
68
60
78
78
30
ENDCHAR
STARTCHAR Cdotaccent
ENCODING 266
SWIDTH 504 0
DWIDTH 6 0
BBX 5 13 0 -1
BITMAP
70
30
30
40
78
F8
F8
F8
78
40
78
70
30
ENDCHAR
STARTCHAR cdotaccent
ENCODING 267
SWIDTH 534 0
DWIDTH 6 0
BBX 6 13 0 -1
BITMAP
78
30
38
40
78
FC
FC
FC
68
60
78
78
30
ENDCHAR
STARTCHAR Ccaron
ENCODING 268
SWIDTH 504 0
DWIDTH 6 0
BBX 5 14 0 -1
BITMAP
48
D8
78
30
00
78
F8
F8
F8
78
40
78
70
30
ENDCHAR
STARTCHAR ccaron
ENCODING 269
SWIDTH 534 0
DWIDTH 6 0
BBX 6 14 0 -1
BITMAP
48
6C
78
38
00
78
FC
FC
FC
68
60
78
78
30
ENDCHAR
STARTCHAR Dcaron
ENCODING 270
SWIDTH 522 0
DWIDTH 6 0
BBX 6 15 0 -2
BITMAP
48
6C
38
38
00
F8
78
7C
68
68
68
68
38
50
10
ENDCHAR
STARTCHAR dcaron
ENCODING 271
SWIDTH 522 0
DWIDTH 6 0
BBX 6 15 0 -2
BITMAP
48
6C
38
38
00
F8
78
7C
68
68
68
68
38
50
10
ENDCHAR
STARTCHAR Eth.dup2
ENCODING 272
SWIDTH 530 0
DWIDTH 6 0
BBX 6 10 0 -2
BITMAP
78
7C
7C
3C
FC
28
28
38
30
10
ENDCHAR
STARTCHAR Emacron
ENCODING 274
SWIDTH 570 0
DWIDTH 6 0
BBX 6 12 0 -1
BITMAP
68
78
00
FC
78
78
68
70
70
68
30
30
ENDCHAR
STARTCHAR emacron
ENCODING 275
SWIDTH 632 0
DWIDTH 7 0
BBX 7 12 0 -1
BITMAP
38
78
00
FE
7C
7C
7C
60
38
20
38
28
ENDCHAR
STARTCHAR Ebreve
ENCODING 276
SWIDTH 570 0
DWIDTH 6 0
BBX 6 13 0 -1
BITMAP
6C
38
08
00
FC
78
78
68
70
70
68
30
30
ENDCHAR
STARTCHAR ebreve
ENCODING 277
SWIDTH 632 0
DWIDTH 7 0
BBX 7 13 0 -1
BITMAP
24
3C
08
00
FE
7C
7C
7C
60
38
20
38
28
ENDCHAR
STARTCHAR Edotaccent
ENCODING 278
SWIDTH 570 0
DWIDTH 6 0
BBX 6 13 0 -1
BITMAP
78
30
38
40
FC
78
78
68
70
70
68
30
30
ENDCHAR
STARTCHAR edotaccent
ENCODING 279
SWIDTH 632 0
DWIDTH 7 0
BBX 7 13 0 -1
BITMAP
38
38
38
20
FE
7C
7C
7C
60
38
20
38
28
ENDCHAR
STARTCHAR Eogonek
ENCODING 280
SWIDTH 513 0
DWIDTH 6 0
BBX 6 12 0 -4
BITMAP
FC
78
78
68
70
70
68
30
10
10
1C
08
ENDCHAR
STARTCHAR eogonek
ENCODING 281
SWIDTH 632 0
DWIDTH 7 0
BBX 7 12 0 -4
BITMAP
FE
7C
7C
7C
60
38
20
38
38
10
1C
04
ENDCHAR
STARTCHAR Ecaron
ENCODING 282
SWIDTH 570 0
DWIDTH 6 0
BBX 6 14 0 -1
BITMAP
48
6C
38
38
00
FC
78
78
68
70
70
68
30
30
ENDCHAR
STARTCHAR ecaron
ENCODING 283
SWIDTH 632 0
DWIDTH 7 0
BBX 7 14 0 -1
BITMAP
64
24
3C
18
00
FE
7C
7C
7C
60
38
20
38
28
ENDCHAR
STARTCHAR Gcircumflex
ENCODING 284
SWIDTH 499 0
DWIDTH 5 0
BBX 5 14 0 -1
BITMAP
10
70
58
88
00
70
F8
F8
58
58
58
58
78
30
ENDCHAR
STARTCHAR gcircumflex
ENCODING 285
SWIDTH 546 0
DWIDTH 6 0
BBX 6 14 0 -1
BITMAP
10
70
78
C8
00
78
FC
FC
7C
68
7C
78
78
38
ENDCHAR
STARTCHAR Gbreve
ENCODING 286
SWIDTH 499 0
DWIDTH 5 0
BBX 5 13 0 -1
BITMAP
48
78
10
00
70
F8
F8
58
58
58
58
78
30
ENDCHAR
STARTCHAR gbreve
ENCODING 287
SWIDTH 546 0
DWIDTH 6 0
BBX 6 13 0 -1
BITMAP
48
78
18
00
78
FC
FC
7C
68
7C
78
78
38
ENDCHAR
STARTCHAR Gdotaccent
ENCODING 288
SWIDTH 499 0
DWIDTH 5 0
BBX 5 13 0 -1
BITMAP
70
70
70
40
70
F8
F8
58
58
58
58
78
30
ENDCHAR
STARTCHAR gdotaccent
ENCODING 289
SWIDTH 546 0
DWIDTH 6 0
BBX 6 13 0 -1
BITMAP
70
30
30
40
78
FC
FC
7C
68
7C
78
78
38
ENDCHAR
STARTCHAR Gcommaaccent
ENCODING 290
SWIDTH 499 0
DWIDTH 5 0
BBX 5 15 0 -7
BITMAP
70
F8
F8
58
58
58
58
78
30
00
30
30
30
10
10
ENDCHAR
STARTCHAR Hcircumflex
ENCODING 292
SWIDTH 726 0
DWIDTH 8 0
BBX 8 15 0 -2
BITMAP
08
38
3C
64
00
FF
66
6E
6C
3C
3C
2C
2C
0C
08
ENDCHAR
STARTCHAR hcircumflex
ENCODING 293
SWIDTH 730 0
DWIDTH 8 0
BBX 8 14 0 -1
BITMAP
08
38
3C
64
08
F7
66
66
66
3C
3C
2C
2C
04
ENDCHAR
STARTCHAR hbar
ENCODING 295
SWIDTH 704 0
DWIDTH 8 0
BBX 8 9 0 -1
BITMAP
FF
7E
7C
6C
3C
3C
2C
2C
04
ENDCHAR
STARTCHAR Itilde
ENCODING 296
SWIDTH 401 0
DWIDTH 4 0
BBX 6 13 -1 -1
BITMAP
50
FC
68
00
78
30
38
30
30
30
10
10
10
ENDCHAR
STARTCHAR itilde
ENCODING 297
SWIDTH 411 0
DWIDTH 5 0
BBX 6 12 -1 0
BITMAP
48
FC
68
00
78
38
30
30
30
10
10
10
ENDCHAR
STARTCHAR Imacron
ENCODING 298
SWIDTH 401 0
DWIDTH 4 0
BBX 4 12 0 -1
BITMAP
D0
F0
00
F0
60
70
60
60
60
20
20
20
ENDCHAR
STARTCHAR imacron
ENCODING 299
SWIDTH 411 0
DWIDTH 5 0
BBX 4 11 0 0
BITMAP
F0
F0
00
F0
70
60
60
60
20
20
20
ENDCHAR
STARTCHAR Ibreve
ENCODING 300
SWIDTH 401 0
DWIDTH 4 0
BBX 5 13 0 -1
BITMAP
D8
70
30
00
F0
60
70
60
60
60
20
20
20
ENDCHAR
STARTCHAR ibreve
ENCODING 301
SWIDTH 411 0
DWIDTH 5 0
BBX 5 12 0 0
BITMAP
D8
70
30
00
F0
70
60
60
60
20
20
20
ENDCHAR
STARTCHAR Iogonek
ENCODING 302
SWIDTH 401 0
DWIDTH 4 0
BBX 4 12 0 -4
BITMAP
F0
60
70
60
60
60
20
20
20
40
60
30
ENDCHAR
STARTCHAR iogonek
ENCODING 303
SWIDTH 412 0
DWIDTH 5 0
BBX 4 12 0 -4
BITMAP
F0
70
60
60
60
20
20
20
20
40
60
30
ENDCHAR
STARTCHAR Idotaccent
ENCODING 304
SWIDTH 401 0
DWIDTH 4 0
BBX 4 13 0 -1
BITMAP
F0
60
70
80
F0
60
70
60
60
60
20
20
20
ENDCHAR
STARTCHAR dotlessi
ENCODING 305
SWIDTH 411 0
DWIDTH 5 0
BBX 4 8 0 0
BITMAP
F0
70
60
60
60
20
20
20
ENDCHAR
STARTCHAR IJ
ENCODING 306
SWIDTH 908 0
DWIDTH 10 0
BBX 10 9 0 -1
BITMAP
F1C0
7180
7180
7180
6180
6500
2500
2700
2000
ENDCHAR
STARTCHAR ij
ENCODING 307
SWIDTH 901 0
DWIDTH 10 0
BBX 10 8 0 0
BITMAP
F3C0
7180
7180
6180
6180
2580
2580
2700
ENDCHAR
STARTCHAR Jcircumflex
ENCODING 308
SWIDTH 455 0
DWIDTH 5 0
BBX 6 13 0 0
BITMAP
10
30
78
4C
00
38
30
30
30
30
B0
A0
E0
ENDCHAR
STARTCHAR jcircumflex
ENCODING 309
SWIDTH 458 0
DWIDTH 5 0
BBX 6 13 0 0
BITMAP
10
30
78
4C
00
78
30
30
30
30
B0
F0
E0
ENDCHAR
STARTCHAR Kcommaaccent
ENCODING 310
SWIDTH 580 0
DWIDTH 6 0
BBX 6 14 0 -6
BITMAP
EC
68
78
78
30
38
38
28
18
38
38
38
08
18
ENDCHAR
STARTCHAR kcommaaccent
ENCODING 311
SWIDTH 636 0
DWIDTH 7 0
BBX 7 14 0 -6
BITMAP
FE
68
28
28
30
38
28
28
04
18
18
18
08
08
ENDCHAR
STARTCHAR kgreenlandic
ENCODING 312
SWIDTH 636 0
DWIDTH 7 0
BBX 7 8 0 0
BITMAP
FE
68
28
28
30
38
28
2C
ENDCHAR
STARTCHAR Lacute
ENCODING 313
SWIDTH 416 0
DWIDTH 5 0
BBX 6 12 0 -1
BITMAP
08
1C
20
F0
60
60
60
60
60
78
38
68
ENDCHAR
STARTCHAR lacute
ENCODING 314
SWIDTH 438 0
DWIDTH 5 0
BBX 6 13 0 -1
BITMAP
08
1C
20
08
F0
60
60
60
20
20
38
38
28
ENDCHAR
STARTCHAR Lcommaaccent
ENCODING 315
SWIDTH 416 0
DWIDTH 5 0
BBX 5 14 0 -6
BITMAP
F0
60
60
60
60
60
78
38
68
70
70
70
10
10
ENDCHAR
STARTCHAR lcommaaccent
ENCODING 316
SWIDTH 438 0
DWIDTH 5 0
BBX 5 14 0 -6
BITMAP
F8
60
60
60
20
20
38
38
28
30
70
70
10
10
ENDCHAR
STARTCHAR Lcaron
ENCODING 317
SWIDTH 714 0
DWIDTH 8 0
BBX 7 9 0 -1
BITMAP
F6
66
66
6A
62
62
78
38
68
ENDCHAR
STARTCHAR lcaron
ENCODING 318
SWIDTH 782 0
DWIDTH 9 0
BBX 8 9 0 -1
BITMAP
FF
67
67
67
21
21
38
38
28
ENDCHAR
STARTCHAR Ldotaccent
ENCODING 319
SWIDTH 567 0
DWIDTH 6 0
BBX 7 9 0 -1
BITMAP
F0
64
6E
6E
6E
60
78
38
68
ENDCHAR
STARTCHAR ldot
ENCODING 320
SWIDTH 660 0
DWIDTH 7 0
BBX 8 9 0 -1
BITMAP
F8
60
6F
66
27
28
38
38
28
ENDCHAR
STARTCHAR Lslash
ENCODING 321
SWIDTH 428 0
DWIDTH 5 0
BBX 5 9 0 -1
BITMAP
F0
60
78
78
F0
60
78
38
28
ENDCHAR
STARTCHAR lslash
ENCODING 322
SWIDTH 457 0
DWIDTH 5 0
BBX 6 9 0 -1
BITMAP
F8
60
78
7C
F0
60
38
38
28
ENDCHAR
STARTCHAR Nacute
ENCODING 323
SWIDTH 610 0
DWIDTH 7 0
BBX 7 13 0 -2
BITMAP
04
0E
10
EE
6C
7C
78
78
38
38
28
68
70
ENDCHAR
STARTCHAR nacute
ENCODING 324
SWIDTH 664 0
DWIDTH 7 0
BBX 8 12 0 -1
BITMAP
02
0F
08
EE
7C
7C
7C
7C
7C
7C
28
68
ENDCHAR
STARTCHAR Ncommaaccent
ENCODING 325
SWIDTH 610 0
DWIDTH 7 0
BBX 7 15 0 -7
BITMAP
EE
6C
7C
78
78
38
38
28
68
70
18
18
38
08
08
ENDCHAR
STARTCHAR ncommaaccent
ENCODING 326
SWIDTH 664 0
DWIDTH 7 0
BBX 7 15 0 -7
BITMAP
EE
7C
7C
7C
7C
7C
7C
28
68
00
18
18
18
08
08
ENDCHAR
STARTCHAR Ncaron
ENCODING 327
SWIDTH 610 0
DWIDTH 7 0
BBX 7 15 0 -2
BITMAP
44
6C
38
38
00
EE
6C
7C
78
78
38
38
28
68
70
ENDCHAR
STARTCHAR ncaron
ENCODING 328
SWIDTH 664 0
DWIDTH 7 0
BBX 7 14 0 -1
BITMAP
64
24
3C
18
00
EE
7C
7C
7C
7C
7C
7C
28
68
ENDCHAR
STARTCHAR Omacron
ENCODING 332
SWIDTH 504 0
DWIDTH 6 0
BBX 5 12 0 -1
BITMAP
68
70
00
78
F8
F8
F8
58
58
58
70
30
ENDCHAR
STARTCHAR omacron
ENCODING 333
SWIDTH 545 0
DWIDTH 6 0
BBX 6 12 0 -1
BITMAP
58
78
00
78
FC
FC
7C
5C
78
78
78
10
ENDCHAR
STARTCHAR Obreve
ENCODING 334
SWIDTH 504 0
DWIDTH 6 0
BBX 5 13 0 -1
BITMAP
48
78
10
00
78
F8
F8
F8
58
58
58
70
30
ENDCHAR
STARTCHAR obreve
ENCODING 335
SWIDTH 545 0
DWIDTH 6 0
BBX 6 13 0 -1
BITMAP
48
78
10
00
78
FC
FC
7C
5C
78
78
78
10
ENDCHAR
STARTCHAR Ohungarumlaut
ENCODING 336
SWIDTH 504 0
DWIDTH 6 0
BBX 6 13 0 -1
BITMAP
6C
58
90
00
78
F8
F8
F8
58
58
58
70
30
ENDCHAR
STARTCHAR ohungarumlaut
ENCODING 337
SWIDTH 545 0
DWIDTH 6 0
BBX 6 13 0 -1
BITMAP
6C
68
50
00
78
FC
FC
7C
5C
78
78
78
10
ENDCHAR
STARTCHAR OE
ENCODING 338
SWIDTH 789 0
DWIDTH 9 0
BBX 8 10 0 -2
BITMAP
7F
FF
FE
FA
5E
5E
58
7E
36
04
ENDCHAR
STARTCHAR oe
ENCODING 339
SWIDTH 778 0
DWIDTH 9 0
BBX 8 9 0 -1
BITMAP
7F
FF
FE
7E
58
5E
78
7E
16
ENDCHAR
STARTCHAR Racute
ENCODING 340
SWIDTH 599 0
DWIDTH 7 0
BBX 7 12 0 -1
BITMAP
04
0E
10
FC
7C
7C
6C
2C
3C
2C
2C
1C
ENDCHAR
STARTCHAR racute
ENCODING 341
SWIDTH 616 0
DWIDTH 7 0
BBX 7 12 0 -1
BITMAP
04
0E
10
FC
7E
7C
2C
2C
3C
28
28
28
ENDCHAR
STARTCHAR Rcommaaccent
ENCODING 342
SWIDTH 599 0
DWIDTH 7 0
BBX 6 14 0 -6
BITMAP
FC
7C
7C
6C
2C
3C
2C
2C
1C
38
38
38
08
08
ENDCHAR
STARTCHAR rcommaaccent
ENCODING 343
SWIDTH 616 0
DWIDTH 7 0
BBX 7 14 0 -6
BITMAP
FC
7E
7C
2C
2C
3C
28
28
28
18
38
38
08
08
ENDCHAR
STARTCHAR Rcaron
ENCODING 344
SWIDTH 599 0
DWIDTH 7 0
BBX 6 14 0 -1
BITMAP
24
6C
3C
38
00
FC
7C
7C
6C
2C
3C
2C
2C
1C
ENDCHAR
STARTCHAR rcaron
ENCODING 345
SWIDTH 616 0
DWIDTH 7 0
BBX 7 14 0 -1
BITMAP
24
6C
38
38
00
FC
7E
7C
2C
2C
3C
28
28
28
ENDCHAR
STARTCHAR Sacute
ENCODING 346
SWIDTH 504 0
DWIDTH 6 0
BBX 6 12 0 -1
BITMAP
04
1C
10
78
78
F8
F8
F0
78
F8
70
30
ENDCHAR
STARTCHAR sacute
ENCODING 347
SWIDTH 481 0
DWIDTH 5 0
BBX 6 12 0 -1
BITMAP
0C
1C
10
70
78
F8
D8
60
70
50
70
40
ENDCHAR
STARTCHAR Scircumflex
ENCODING 348
SWIDTH 504 0
DWIDTH 6 0
BBX 6 14 0 -1
BITMAP
10
30
78
4C
00
78
78
F8
F8
F0
78
F8
70
30
ENDCHAR
STARTCHAR scircumflex
ENCODING 349
SWIDTH 481 0
DWIDTH 5 0
BBX 5 14 0 -1
BITMAP
10
70
78
C8
00
70
78
F8
D8
60
70
50
70
40
ENDCHAR
STARTCHAR Scedilla
ENCODING 350
SWIDTH 504 0
DWIDTH 6 0
BBX 5 12 0 -4
BITMAP
78
78
F8
F8
F0
78
F8
70
30
30
10
30
ENDCHAR
STARTCHAR scedilla
ENCODING 351
SWIDTH 481 0
DWIDTH 5 0
BBX 5 12 0 -4
BITMAP
70
78
F8
D8
60
70
50
70
20
30
10
30
ENDCHAR
STARTCHAR Scaron
ENCODING 352
SWIDTH 503 0
DWIDTH 6 0
BBX 5 15 0 -1
BITMAP
C8
58
78
30
00
00
78
78
F8
F8
F0
78
F8
70
30
ENDCHAR
STARTCHAR scaron
ENCODING 353
SWIDTH 479 0
DWIDTH 5 0
BBX 5 15 0 -1
BITMAP
48
D8
70
70
00
00
70
78
F8
D8
60
70
50
70
40
ENDCHAR
STARTCHAR Tcommaaccent
ENCODING 354
SWIDTH 622 0
DWIDTH 7 0
BBX 6 13 0 -5
BITMAP
FC
7C
7C
7C
18
18
10
10
10
10
18
08
18
ENDCHAR
STARTCHAR tcommaaccent
ENCODING 355
SWIDTH 683 0
DWIDTH 8 0
BBX 7 13 0 -5
BITMAP
FE
7C
7C
7C
18
18
18
18
18
08
18
08
18
ENDCHAR
STARTCHAR Tcaron
ENCODING 356
SWIDTH 622 0
DWIDTH 7 0
BBX 6 14 0 -1
BITMAP
44
6C
38
38
00
FC
7C
7C
7C
18
18
10
10
10
ENDCHAR
STARTCHAR tcaron
ENCODING 357
SWIDTH 622 0
DWIDTH 7 0
BBX 6 14 0 -1
BITMAP
24
6C
38
38
00
FC
7C
7C
7C
18
18
10
10
10
ENDCHAR
STARTCHAR Utilde
ENCODING 360
SWIDTH 637 0
DWIDTH 7 0
BBX 7 13 0 -1
BITMAP
48
7C
28
00
EE
6C
6C
6C
6C
68
28
38
08
ENDCHAR
STARTCHAR utilde
ENCODING 361
SWIDTH 708 0
DWIDTH 8 0
BBX 8 12 0 0
BITMAP
28
7C
34
00
F7
7E
76
74
3C
3C
3C
3C
ENDCHAR
STARTCHAR Umacron
ENCODING 362
SWIDTH 637 0
DWIDTH 7 0
BBX 7 12 0 -1
BITMAP
38
38
00
EE
6C
6C
6C
6C
68
28
38
08
ENDCHAR
STARTCHAR umacron
ENCODING 363
SWIDTH 708 0
DWIDTH 8 0
BBX 8 11 0 0
BITMAP
2C
3C
00
F7
7E
76
74
3C
3C
3C
3C
ENDCHAR
STARTCHAR Ubreve
ENCODING 364
SWIDTH 637 0
DWIDTH 7 0
BBX 7 13 0 -1
BITMAP
24
3C
08
00
EE
6C
6C
6C
6C
68
28
38
08
ENDCHAR
STARTCHAR ubreve
ENCODING 365
SWIDTH 708 0
DWIDTH 8 0
BBX 8 12 0 0
BITMAP
34
1C
04
00
F7
7E
76
74
3C
3C
3C
3C
ENDCHAR
STARTCHAR Uring
ENCODING 366
SWIDTH 637 0
DWIDTH 7 0
BBX 7 13 0 -1
BITMAP
38
28
10
00
EE
6C
6C
6C
6C
68
28
38
08
ENDCHAR
STARTCHAR uring
ENCODING 367
SWIDTH 708 0
DWIDTH 8 0
BBX 8 12 0 0
BITMAP
1C
14
18
00
F7
7E
76
74
3C
3C
3C
3C
ENDCHAR
STARTCHAR Uhungarumlaut
ENCODING 368
SWIDTH 637 0
DWIDTH 7 0
BBX 7 13 0 -1
BITMAP
36
2C
48
00
EE
6C
6C
6C
6C
68
28
38
08
ENDCHAR
STARTCHAR uhungarumlaut
ENCODING 369
SWIDTH 708 0
DWIDTH 8 0
BBX 8 12 0 0
BITMAP
36
34
28
00
F7
7E
76
74
3C
3C
3C
3C
ENDCHAR
STARTCHAR Uogonek
ENCODING 370
SWIDTH 637 0
DWIDTH 7 0
BBX 7 11 0 -3
BITMAP
EE
6C
6C
6C
6C
68
28
38
10
18
0C
ENDCHAR
STARTCHAR uogonek
ENCODING 371
SWIDTH 662 0
DWIDTH 7 0
BBX 8 11 0 -3
BITMAP
F7
6E
76
74
2C
3C
3C
3C
10
10
1C
ENDCHAR
STARTCHAR Wcircumflex
ENCODING 372
SWIDTH 777 0
DWIDTH 9 0
BBX 9 13 0 0
BITMAP
0400
1C00
3C00
2600
0000
EB80
6A00
3E00
3C00
3E00
1C00
1C00
1C00
ENDCHAR
STARTCHAR wcircumflex
ENCODING 373
SWIDTH 704 0
DWIDTH 8 0
BBX 8 13 0 0
BITMAP
08
38
3C
64
00
F7
7E
3C
3C
3C
3C
1C
1C
ENDCHAR
STARTCHAR Ycircumflex
ENCODING 374
SWIDTH 688 0
DWIDTH 8 0
BBX 8 14 0 -1
BITMAP
08
38
2C
64
00
E7
3E
1C
18
18
08
08
08
08
ENDCHAR
STARTCHAR ycircumflex
ENCODING 375
SWIDTH 604 0
DWIDTH 7 0
BBX 7 14 0 -1
BITMAP
08
38
78
4C
00
EE
28
38
38
10
10
10
10
10
ENDCHAR
STARTCHAR Ydieresis
ENCODING 376
SWIDTH 688 0
DWIDTH 8 0
BBX 8 13 0 -1
BITMAP
04
6E
6E
00
E7
3E
1C
18
18
08
08
08
08
ENDCHAR
STARTCHAR Zacute
ENCODING 377
SWIDTH 695 0
DWIDTH 8 0
BBX 8 11 0 0
BITMAP
02
07
08
FF
7E
7C
6C
18
10
30
38
ENDCHAR
STARTCHAR zacute
ENCODING 378
SWIDTH 622 0
DWIDTH 7 0
BBX 7 12 0 -1
BITMAP
04
0E
10
FC
7C
7C
78
10
10
30
38
08
ENDCHAR
STARTCHAR Zdotaccent
ENCODING 379
SWIDTH 695 0
DWIDTH 8 0
BBX 8 12 0 0
BITMAP
38
18
18
20
FF
7E
7C
6C
18
10
30
38
ENDCHAR
STARTCHAR zdotaccent
ENCODING 380
SWIDTH 622 0
DWIDTH 7 0
BBX 6 13 0 -1
BITMAP
38
38
38
20
FC
7C
7C
78
10
10
30
38
08
ENDCHAR
STARTCHAR Zcaron
ENCODING 381
SWIDTH 693 0
DWIDTH 8 0
BBX 8 14 0 0
BITMAP
24
2C
3C
18
00
00
FF
7E
7C
7C
18
10
38
38
ENDCHAR
STARTCHAR zcaron
ENCODING 382
SWIDTH 621 0
DWIDTH 7 0
BBX 6 15 0 -1
BITMAP
44
6C
38
38
00
00
FC
7C
7C
78
10
10
30
38
08
ENDCHAR
STARTCHAR DZ
ENCODING 497
SWIDTH 194 0
DWIDTH 2 0
BBX 1 1 0 0
BITMAP
00
ENDCHAR
STARTCHAR Dz
ENCODING 498
SWIDTH 194 0
DWIDTH 2 0
BBX 1 1 0 0
BITMAP
00
ENDCHAR
STARTCHAR dotlessj
ENCODING 567
SWIDTH 458 0
DWIDTH 5 0
BBX 5 8 0 0
BITMAP
78
30
30
30
30
B0
F0
E0
ENDCHAR
STARTCHAR circumflex
ENCODING 710
SWIDTH 528 0
DWIDTH 6 0
BBX 5 4 0 8
BITMAP
10
70
78
C8
ENDCHAR
STARTCHAR caron
ENCODING 711
SWIDTH 486 0
DWIDTH 5 0
BBX 5 4 0 8
BITMAP
48
D8
70
70
ENDCHAR
STARTCHAR breve
ENCODING 728
SWIDTH 464 0
DWIDTH 5 0
BBX 5 3 0 -1
BITMAP
D8
70
30
ENDCHAR
STARTCHAR dotaccent
ENCODING 729
SWIDTH 388 0
DWIDTH 4 0
BBX 4 4 0 2
BITMAP
F0
60
70
80
ENDCHAR
STARTCHAR ring
ENCODING 730
SWIDTH 370 0
DWIDTH 4 0
BBX 3 3 1 3
BITMAP
C0
A0
C0
ENDCHAR
STARTCHAR ogonek
ENCODING 731
SWIDTH 360 0
DWIDTH 4 0
BBX 2 4 1 0
BITMAP
80
80
80
C0
ENDCHAR
STARTCHAR tilde
ENCODING 732
SWIDTH 535 0
DWIDTH 6 0
BBX 6 3 0 -1
BITMAP
50
FC
68
ENDCHAR
STARTCHAR hungarumlaut
ENCODING 733
SWIDTH 554 0
DWIDTH 6 0
BBX 6 3 0 8
BITMAP
6C
58
D0
ENDCHAR
STARTCHAR dotaccentcmb
ENCODING 775
SWIDTH 396 0
DWIDTH 4 0
BBX 4 4 0 4
BITMAP
A0
70
70
70
ENDCHAR
STARTCHAR uni030F
ENCODING 783
SWIDTH 549 0
DWIDTH 6 0
BBX 6 3 0 8
BITMAP
D8
68
2C
ENDCHAR
STARTCHAR uni0311
ENCODING 785
SWIDTH 490 0
DWIDTH 5 0
BBX 4 3 1 4
BITMAP
E0
F0
B0
ENDCHAR
STARTCHAR uni0326
ENCODING 806
SWIDTH 360 0
DWIDTH 4 0
BBX 2 5 1 -1
BITMAP
C0
C0
C0
40
40
ENDCHAR
STARTCHAR endash
ENCODING 8211
SWIDTH 478 0
DWIDTH 5 0
BBX 4 2 1 3
BITMAP
F0
E0
ENDCHAR
STARTCHAR emdash
ENCODING 8212
SWIDTH 567 0
DWIDTH 6 0
BBX 5 2 1 3
BITMAP
F8
F0
ENDCHAR
STARTCHAR quoteleft
ENCODING 8216
SWIDTH 373 0
DWIDTH 4 0
BBX 3 5 1 3
BITMAP
80
80
E0
C0
C0
ENDCHAR
STARTCHAR quoteright
ENCODING 8217
SWIDTH 369 0
DWIDTH 4 0
BBX 3 5 0 3
BITMAP
60
60
E0
20
20
ENDCHAR
STARTCHAR quotesinglbase
ENCODING 8218
SWIDTH 369 0
DWIDTH 4 0
BBX 3 5 0 3
BITMAP
60
60
E0
20
20
ENDCHAR
STARTCHAR quotedblleft
ENCODING 8220
SWIDTH 687 0
DWIDTH 8 0
BBX 6 5 1 3
BITMAP
90
90
FC
DC
DC
ENDCHAR
STARTCHAR quotedblright
ENCODING 8221
SWIDTH 677 0
DWIDTH 7 0
BBX 7 5 0 3
BITMAP
6E
6E
EE
22
26
ENDCHAR
STARTCHAR quotedblbase
ENCODING 8222
SWIDTH 697 0
DWIDTH 8 0
BBX 7 5 0 -3
BITMAP
6E
6E
EE
22
22
ENDCHAR
STARTCHAR ellipsis
ENCODING 8230
SWIDTH 1462 0
DWIDTH 16 0
BBX 16 4 0 0
BITMAP
E187
6186
6187
8104
ENDCHAR
STARTCHAR guilsinglleft
ENCODING 8249
SWIDTH 459 0
DWIDTH 5 0
BBX 5 6 0 1
BITMAP
38
70
60
E0
60
38
ENDCHAR
STARTCHAR guilsinglright
ENCODING 8250
SWIDTH 432 0
DWIDTH 5 0
BBX 4 6 0 1
BITMAP
E0
60
30
30
70
E0
ENDCHAR
STARTCHAR fraction
ENCODING 8260
SWIDTH 371 0
DWIDTH 4 0
BBX 4 8 0 0
BITMAP
F0
60
60
60
60
60
60
20
ENDCHAR
STARTCHAR Euro
ENCODING 8364
SWIDTH 587 0
DWIDTH 6 0
BBX 6 10 0 -2
BITMAP
38
7C
7C
7C
FC
F0
2C
38
30
10
ENDCHAR
STARTCHAR trademark
ENCODING 8482
SWIDTH 785 0
DWIDTH 9 0
BBX 8 5 0 3
BITMAP
FF
67
27
27
25
ENDCHAR
STARTCHAR minus
ENCODING 8722
SWIDTH 478 0
DWIDTH 5 0
BBX 4 2 1 3
BITMAP
F0
E0
ENDCHAR
STARTCHAR commaaccent
ENCODING 63171
SWIDTH 360 0
DWIDTH 4 0
BBX 3 6 0 -2
BITMAP
60
60
60
A0
20
20
ENDCHAR
STARTCHAR .notdef
ENCODING -1
SWIDTH 365 0
DWIDTH 4 0
BBX 3 7 0 0
BITMAP
E0
A0
A0
A0
A0
A0
E0
ENDCHAR
STARTCHAR .null
ENCODING -1
SWIDTH 0 0
DWIDTH 0 0
BBX 1 1 0 0
BITMAP
00
ENDCHAR
STARTCHAR nonmarkingreturn
ENCODING -1
SWIDTH 333 0
DWIDTH 4 0
BBX 1 1 0 0
BITMAP
00
ENDCHAR
ENDFONT
